<svg width="140" height="76" viewBox="0 0 140 76" fill="none" xmlns="http://www.w3.org/2000/svg">
<mask id="mask0_3362_15649" style="mask-type:luminance" maskUnits="userSpaceOnUse" x="0" y="0" width="140" height="76">
<path d="M139.778 1.52588e-05H0V75.3282H139.778V1.52588e-05Z" fill="white"/>
</mask>
<g mask="url(#mask0_3362_15649)">
<path d="M0.638563 27.9565C0.290949 28.4083 0.0078125 28.8531 0.0078125 29.3006C0.0078125 29.7468 0.726868 30.6448 1.80615 30.8225C2.88123 31.0015 4.38802 31.091 4.98934 30.7959C5.45749 30.5651 5.93686 30.1063 6.384 29.4755C6.83253 28.8489 7.85575 27.3914 8.35474 26.9046C9.10603 26.1717 15.7892 19.711 16.3274 18.9935C16.8657 18.2773 17.5244 17.6465 18.0599 17.6465C18.6009 17.6465 18.9598 18.006 19.1378 18.2773C19.3186 18.5445 19.9802 19.3711 20.2339 19.6551C20.6053 20.0719 21.5837 21.044 21.9327 21.4119C22.7653 22.2875 26.1615 27.397 26.6843 28.0446C27.2072 28.6922 28.121 29.7468 28.571 30.3721C29.1078 31.126 30.1044 32.0659 30.5459 32.3499C31.1304 32.7163 31.907 33.1052 32.6456 33.0087C33.4558 32.9052 34.2828 32.4352 34.7299 31.8114C35.1798 31.1763 36.8661 28.881 37.4309 28.0516C37.9566 27.2977 39.3484 25.8052 40.5146 23.7449C41.6822 21.6818 43.4805 18.8186 44.5556 17.5612C45.6349 16.3093 47.4402 14.0084 48.3373 12.6656C49.2316 11.3201 49.9885 10.3899 50.5309 9.67657C51.1813 8.81776 51.6957 8.59256 52.2816 8.3296C52.9964 8.01069 53.9902 8.16036 54.4331 8.53102C55.0064 9.01778 56.6155 11.355 57.6934 13.3258C58.7713 15.2952 62.1746 19.718 62.7899 20.5363C63.6421 21.672 65.8161 24.2806 66.6262 25.3576C67.4364 26.4305 71.2742 31.505 72.1446 32.4058C72.973 33.2646 74.5905 33.8619 76.208 34.0423C77.8228 34.2186 80.6667 34.0311 83.2136 32.6408C85.7548 31.2463 94.0485 26.4263 96.5504 25.1199C98.5394 24.082 105.789 19.7935 108.923 18.1165C109.929 17.578 112.469 16.2044 113.056 15.9331C114.98 15.0351 117.896 13.835 119.448 13.3035C122.61 12.2181 126.498 11.7914 129.756 11.4683C131.556 11.2893 135.314 11.0907 137.28 10.6962C137.86 10.5787 139.255 10.0374 139.255 9.11289C139.255 6.80499 130.237 7.05677 127.98 7.21202C125.861 7.35889 122.017 7.78131 119.185 8.37296C116.807 8.86951 112.147 10.1326 108.575 11.7257C105.361 13.1594 98.2535 17.0255 97.0887 17.5598C95.9183 18.0997 86.2342 22.9365 84.3461 23.7449C82.4595 24.552 79.5188 26.2165 76.8808 25.8794C75.1021 25.6528 74.1196 25.3772 73.158 24.5142C72.2343 23.689 71.9217 23.2875 71.3232 22.4008C70.4906 21.1615 66.2618 15.6519 65.4488 14.2588C64.905 13.3258 59.5534 4.59501 58.4433 3.11097C57.7229 2.15564 55.8222 0.533123 54.6672 0.193233C51.1799 -0.833427 48.9512 2.5291 48.2714 3.25644C47.3603 4.23135 45.5732 7.17146 44.6691 8.42192C43.7637 9.66958 41.1173 12.9804 40.2889 13.9776C39.1354 15.3666 35.0663 21.4202 34.329 22.307C33.7543 23.0008 33.09 23.6414 32.3723 23.6148C31.7458 23.5939 30.2768 22.2217 29.7372 21.4119C29.1989 20.6062 28.0215 18.9501 26.7096 17.5234C25.7733 16.5051 21.7 12.3509 20.4413 11.3662C19.184 10.3773 18.315 10.6417 17.2007 11.0991C16.0863 11.5565 14.1128 13.6168 13.2998 14.6001C12.4925 15.5904 5.0384 22.9365 4.04882 24.0121C3.06064 25.0877 0.981971 27.5047 0.638563 27.9565Z" fill="#BB3119"/>
</g>
<path d="M114.972 54.1251H119.366V55.2609C119.366 57.6989 119.889 58.2164 127.469 58.2164C135.055 58.2164 135.575 57.6989 135.575 55.2259C135.575 53.3097 135.055 52.7922 132.877 52.7586L122.001 52.5963C116.469 52.4984 115.096 51.1347 115.096 46.3916C115.096 41.615 116.729 39.9939 127.144 39.9939C137.956 39.9939 139.316 41.3576 139.316 46.3916V47.4323H134.923V46.6853C134.923 44.2502 134.406 43.7284 127.144 43.7284C119.822 43.7284 119.299 44.2502 119.299 46.4867C119.299 48.2435 119.822 48.7638 122.001 48.796L132.877 48.9569C138.406 49.0562 139.778 50.4185 139.778 55.3238C139.778 60.3299 138.148 61.9524 127.469 61.9524C116.338 61.9524 114.972 60.5872 114.972 55.5518V54.1251ZM99.0502 44.3774H99.1175L104.196 53.3433H93.9776L99.0502 44.3774ZM113.996 61.6265L101.364 40.3184H97.064L84.1785 61.6265H89.289L91.8246 57.1422H106.342L108.881 61.6265H113.996ZM68.2065 44.3774H68.271L73.3492 53.3433H63.1297L68.2065 44.3774ZM83.1497 61.6265L70.5207 40.3184H66.2204L53.332 61.6265H58.4425L60.9865 57.1422H75.5036L78.0406 61.6265H83.1497ZM32.0729 49.8996H44.4132C46.6615 49.8996 47.3105 49.2506 47.3105 47.0056C47.3105 44.7691 46.6615 44.1201 44.4132 44.1201H32.0729V49.8996ZM32.0729 53.6999V61.6265H27.6773V40.3184H44.4132C50.3367 40.3184 51.7033 41.6821 51.7033 46.5874C51.7033 49.3149 50.9548 50.971 48.8411 51.7515V51.8159C50.9548 52.5348 51.7033 54.0244 51.7033 56.1687V61.6265H47.3105V56.5925C47.3105 54.3489 46.6615 53.6999 44.4132 53.6999H32.0729ZM4.39563 48.4715H16.0533C18.3296 48.4715 18.9491 47.8533 18.9491 46.2601C18.9491 44.6684 18.3296 44.0543 16.0533 44.0543H4.39563V48.4715ZM4.39563 57.8919H16.991C19.2379 57.8919 19.8911 57.2415 19.8911 55.0679C19.8911 52.8887 19.2379 52.2397 16.991 52.2397H4.39563V57.8919ZM0 40.3184H16.0533C21.9753 40.3184 23.3406 41.6821 23.3406 45.8377C23.3406 47.9484 22.6902 49.3807 20.9633 50.1612V50.2241C23.4387 50.9389 24.2797 52.6299 24.2797 55.4889C24.2797 60.2627 22.9187 61.6265 16.991 61.6265H0V40.3184Z" fill="#BB3119"/>
</svg>
