<svg width="182" height="58" viewBox="0 0 182 58" fill="none" xmlns="http://www.w3.org/2000/svg">
<g clip-path="url(#clip0_3362_15662)">
<path d="M13.0514 2.61639C9.45675 4.48398 5.79791 6.41597 2.78098 9.57155C-0.0433924 12.4695 -0.813674 17.4283 0.919461 21.1635C2.75523 24.8112 5.13641 28.1558 7.98038 31.081C6.07921 21.2903 7.88747 11.1402 13.0514 2.61639Z" fill="#37A58C"/>
<path d="M10.0977 32.9486C13.6281 35.2026 17.0944 37.3278 21.1384 38.2938C25.5675 39.3242 29.7399 37.4566 32.3717 33.9146C34.4426 30.5357 36.0612 26.8981 37.1859 23.0955C29.6684 29.6048 20.0266 33.112 10.0977 32.9486Z" fill="#DD0661"/>
<path d="M36.4789 5.64317C35.6236 4.07794 34.3974 2.74804 32.9085 1.7709C31.4195 0.793765 29.7137 0.199441 27.9416 0.040408C23.9455 -0.115247 19.9475 0.296694 16.0664 1.264C24.8605 4.09758 33.5903 11.4391 38.0836 19.8755C38.2762 14.9811 38.533 9.76474 36.4789 5.64317Z" fill="#4F4F4F"/>
<path d="M113.316 19.8755V35.589H108.823V19.8755H98.4883V57.9356H108.823V42.1577H113.252V57.9356H123.587V19.8755H113.316Z" fill="#010101"/>
<path d="M133.602 19.8755C130.329 19.8755 128.082 22.7091 128.082 26.1222V57.9356H138.352V42.1577H142.525V57.9356H152.731V19.8755H133.602ZM142.525 35.589H138.352V27.861C138.352 26.4442 138.866 25.929 140.15 25.929H142.525V35.589Z" fill="#010101"/>
<path d="M67.0362 38.6802C69.4112 38.4226 72.1714 35.911 72.1714 32.5622V26.1222C72.1072 22.6447 69.5396 19.8755 66.8436 19.8755H47.2656V57.9356H57.4719V42.1577H60.0395C61.2591 42.1577 61.8368 42.7373 61.8368 44.1541V58H72.1714V44.9269C72.1714 41.5137 69.4754 38.9378 67.0362 38.6802ZM61.8368 33.657C61.901 34.8162 61.3875 35.4602 60.553 35.589H57.5361V25.929H60.1037C61.3875 25.929 61.901 26.573 61.901 27.861L61.8368 33.657Z" fill="#010101"/>
<path d="M86.9987 27.217H94.0596V19.8755H76.6641V57.9356H94.0596V50.5941H86.9987V42.1577H92.9684V35.589H86.9987V27.217Z" fill="#010101"/>
<path d="M181.295 54.1361C181.835 52.6752 182.075 51.12 182.001 49.5637V19.9399H171.923V49.3061C171.931 49.5983 171.877 49.8888 171.765 50.1586C171.652 50.4285 171.485 50.6716 171.273 50.8721C171.061 51.0727 170.809 51.2261 170.534 51.3224C170.259 51.4188 169.967 51.4559 169.677 51.4313H169.612C169.323 51.4508 169.033 51.4102 168.76 51.3121C168.487 51.2139 168.238 51.0602 168.027 50.8607C167.816 50.6612 167.648 50.4201 167.534 50.1526C167.421 49.8851 167.363 49.5969 167.366 49.3061V19.9399H157.288V49.5637C157.198 51.1208 157.439 52.6792 157.994 54.1361C158.408 55.0139 159.006 55.791 159.749 56.4137C160.492 57.0364 161.36 57.4898 162.295 57.7424C163.204 57.9173 164.13 57.9821 165.055 57.9356H174.298C175.222 57.9471 176.145 57.8825 177.058 57.7424C177.974 57.4661 178.823 57.0032 179.552 56.3826C180.281 55.7621 180.874 54.9973 181.295 54.1361Z" fill="#010101"/>
</g>
<defs>
<clipPath id="clip0_3362_15662">
<rect width="182" height="58" fill="white"/>
</clipPath>
</defs>
</svg>
