<svg width="161" height="48" viewBox="0 0 161 48" fill="none" xmlns="http://www.w3.org/2000/svg">
<g clip-path="url(#clip0_4655_6078)">
<rect width="160.406" height="47.1042" fill="white"/>
<path fill-rule="evenodd" clip-rule="evenodd" d="M0 0V46.9479H28.3625V0H0ZM15.753 43.2019H13.9379V39.2944C13.9379 38.7467 13.8416 38.3415 13.6463 38.0786C13.4538 37.8185 13.1843 37.687 12.8405 37.687C12.4968 37.687 12.153 37.8212 11.8312 38.0923C11.5122 38.3634 11.2839 38.7139 11.1492 39.1493V43.2019H9.33407V39.2944C9.33407 38.7385 9.23507 38.3305 9.04256 38.0731C8.84729 37.8157 8.57778 37.687 8.23676 37.687C7.89574 37.687 7.54646 37.8185 7.22744 38.0813C6.90567 38.347 6.67741 38.692 6.54265 39.1219V43.2019H4.72754V36.2029H6.36664V37.509C6.63891 37.0572 6.99918 36.7067 7.45021 36.463C7.90124 36.2193 8.42102 36.0961 9.0068 36.0961C9.59259 36.0961 10.0519 36.2385 10.3819 36.5233C10.7119 36.808 10.9209 37.1585 11.0117 37.5748C11.3004 37.0956 11.669 36.7286 12.1172 36.4767C12.5628 36.222 13.0661 36.0961 13.6271 36.0961C14.0699 36.0961 14.4274 36.1728 14.7024 36.3288C14.9802 36.4849 15.1919 36.693 15.3459 36.9559C15.5 37.2188 15.6072 37.5145 15.665 37.8431C15.7227 38.1717 15.753 38.5058 15.753 38.8426V43.2019ZM16.9685 20.8931H9.09756L4.72754 4.69616H8.64378L12.252 18.0754H13.8141L17.4251 4.69616H21.3386L16.9685 20.8931Z" fill="black"/>
<path fill-rule="evenodd" clip-rule="evenodd" d="M41.4482 39.9845C41.1952 39.9352 40.9559 39.9133 40.7277 39.9133C40.2601 39.9133 39.8724 40.0118 39.5699 40.209C39.2673 40.4061 39.1161 40.6663 39.1161 40.9894C39.1161 41.1647 39.1656 41.3317 39.2673 41.4905C39.3663 41.6493 39.5093 41.7753 39.6991 41.8711C39.8889 41.967 40.1144 42.0163 40.3757 42.0163C40.6369 42.0163 40.9147 41.967 41.1759 41.8657C41.4372 41.7643 41.649 41.6384 41.8112 41.4905C41.913 41.3865 41.9928 41.2797 42.056 41.1756C42.1193 41.0688 42.1523 40.973 42.1523 40.8853V40.1871C41.935 40.0995 41.6985 40.0337 41.4482 39.9845ZM41.4482 39.9845C41.1952 39.9352 40.9559 39.9133 40.7277 39.9133C40.2601 39.9133 39.8724 40.0118 39.5699 40.209C39.2673 40.4061 39.1161 40.6663 39.1161 40.9894C39.1161 41.1647 39.1656 41.3317 39.2673 41.4905C39.3663 41.6493 39.5093 41.7753 39.6991 41.8711C39.8889 41.967 40.1144 42.0163 40.3757 42.0163C40.6369 42.0163 40.9147 41.967 41.1759 41.8657C41.4372 41.7643 41.649 41.6384 41.8112 41.4905C41.913 41.3865 41.9928 41.2797 42.056 41.1756C42.1193 41.0688 42.1523 40.973 42.1523 40.8853V40.1871C41.935 40.0995 41.6985 40.0337 41.4482 39.9845ZM41.4482 39.9845C41.1952 39.9352 40.9559 39.9133 40.7277 39.9133C40.2601 39.9133 39.8724 40.0118 39.5699 40.209C39.2673 40.4061 39.1161 40.6663 39.1161 40.9894C39.1161 41.1647 39.1656 41.3317 39.2673 41.4905C39.3663 41.6493 39.5093 41.7753 39.6991 41.8711C39.8889 41.967 40.1144 42.0163 40.3757 42.0163C40.6369 42.0163 40.9147 41.967 41.1759 41.8657C41.4372 41.7643 41.649 41.6384 41.8112 41.4905C41.913 41.3865 41.9928 41.2797 42.056 41.1756C42.1193 41.0688 42.1523 40.973 42.1523 40.8853V40.1871C41.935 40.0995 41.6985 40.0337 41.4482 39.9845ZM41.4482 39.9845C41.1952 39.9352 40.9559 39.9133 40.7277 39.9133C40.2601 39.9133 39.8724 40.0118 39.5699 40.209C39.2673 40.4061 39.1161 40.6663 39.1161 40.9894C39.1161 41.1647 39.1656 41.3317 39.2673 41.4905C39.3663 41.6493 39.5093 41.7753 39.6991 41.8711C39.8889 41.967 40.1144 42.0163 40.3757 42.0163C40.6369 42.0163 40.9147 41.967 41.1759 41.8657C41.4372 41.7643 41.649 41.6384 41.8112 41.4905C41.913 41.3865 41.9928 41.2797 42.056 41.1756C42.1193 41.0688 42.1523 40.973 42.1523 40.8853V40.1871C41.935 40.0995 41.6985 40.0337 41.4482 39.9845ZM32.6697 0V46.9479H61.0322V0H32.6697ZM37.3972 4.69616H41.1787V20.8931H37.3972V4.69616ZM44.3991 43.2019C44.2369 43.2293 44.0911 43.2512 43.9591 43.2704C43.8271 43.2896 43.7171 43.2978 43.6264 43.2978C43.2661 43.2978 42.9938 43.2156 42.8068 43.0541C42.6225 42.8925 42.507 42.6954 42.463 42.4626L42.4218 42.0957C42.1138 42.4927 41.7315 42.7994 41.2695 43.013C40.8102 43.2293 40.3399 43.3389 39.8614 43.3389C39.3828 43.3389 38.9703 43.243 38.5963 43.0513C38.2195 42.8597 37.928 42.5995 37.7162 42.2654C37.5017 41.9314 37.3972 41.5562 37.3972 41.14C37.3972 40.6855 37.5265 40.2884 37.7822 39.9461C38.0408 39.6038 38.3983 39.341 38.8603 39.1548C39.3196 38.9685 39.8476 38.8754 40.4444 38.8754C40.7414 38.8754 41.0439 38.8974 41.352 38.9412C41.66 38.9877 41.924 39.0589 42.1523 39.1575V38.7823C42.1523 38.3387 42.0175 37.9992 41.7507 37.761C41.484 37.5227 41.0907 37.405 40.5654 37.405C40.1776 37.405 39.8091 37.4707 39.4543 37.6076C39.1023 37.7418 38.7338 37.939 38.346 38.1991L37.763 37.0134C38.2333 36.7067 38.7118 36.4794 39.2041 36.3261C39.6964 36.1728 40.2134 36.0961 40.7552 36.0961C41.7672 36.0961 42.5538 36.3453 43.1203 36.8409C43.6841 37.3365 43.9674 38.0457 43.9674 38.9685V41.1893C43.9674 41.3728 44.0004 41.5069 44.0664 41.5863C44.1351 41.6658 44.2451 41.715 44.3991 41.7342V43.2019ZM40.7277 39.9133C40.2601 39.9133 39.8724 40.0118 39.5699 40.209C39.2673 40.4061 39.1161 40.6663 39.1161 40.9894C39.1161 41.1647 39.1656 41.3317 39.2673 41.4905C39.3663 41.6493 39.5093 41.7753 39.6991 41.8711C39.8889 41.967 40.1144 42.0163 40.3757 42.0163C40.6369 42.0163 40.9147 41.967 41.1759 41.8657C41.4372 41.7643 41.649 41.6384 41.8112 41.4905C41.913 41.3865 41.9928 41.2797 42.056 41.1756C42.1193 41.0688 42.1523 40.973 42.1523 40.8853V40.1871C41.935 40.0995 41.6985 40.0337 41.4482 39.9845C41.1952 39.9352 40.9559 39.9133 40.7277 39.9133ZM41.4482 39.9845C41.1952 39.9352 40.9559 39.9133 40.7277 39.9133C40.2601 39.9133 39.8724 40.0118 39.5699 40.209C39.2673 40.4061 39.1161 40.6663 39.1161 40.9894C39.1161 41.1647 39.1656 41.3317 39.2673 41.4905C39.3663 41.6493 39.5093 41.7753 39.6991 41.8711C39.8889 41.967 40.1144 42.0163 40.3757 42.0163C40.6369 42.0163 40.9147 41.967 41.1759 41.8657C41.4372 41.7643 41.649 41.6384 41.8112 41.4905C41.913 41.3865 41.9928 41.2797 42.056 41.1756C42.1193 41.0688 42.1523 40.973 42.1523 40.8853V40.1871C41.935 40.0995 41.6985 40.0337 41.4482 39.9845ZM41.4482 39.9845C41.1952 39.9352 40.9559 39.9133 40.7277 39.9133C40.2601 39.9133 39.8724 40.0118 39.5699 40.209C39.2673 40.4061 39.1161 40.6663 39.1161 40.9894C39.1161 41.1647 39.1656 41.3317 39.2673 41.4905C39.3663 41.6493 39.5093 41.7753 39.6991 41.8711C39.8889 41.967 40.1144 42.0163 40.3757 42.0163C40.6369 42.0163 40.9147 41.967 41.1759 41.8657C41.4372 41.7643 41.649 41.6384 41.8112 41.4905C41.913 41.3865 41.9928 41.2797 42.056 41.1756C42.1193 41.0688 42.1523 40.973 42.1523 40.8853V40.1871C41.935 40.0995 41.6985 40.0337 41.4482 39.9845Z" fill="black"/>
<path fill-rule="evenodd" clip-rule="evenodd" d="M65.0378 0V47.1042H94.5348V0H65.0378ZM76.8143 43.208H74.9264V39.1438C74.9264 38.5656 74.8234 38.1413 74.6175 37.8736C74.4115 37.6058 74.1255 37.472 73.7594 37.472C73.5048 37.472 73.2473 37.5346 72.9899 37.6628C72.7325 37.791 72.5008 37.9675 72.2919 38.1925C72.086 38.4147 71.9373 38.6739 71.8429 38.9644V43.208H69.955V35.9283H71.6598V37.2868C71.8457 36.9736 72.086 36.7058 72.3778 36.4894C72.6695 36.2729 73.0042 36.1049 73.3846 35.991C73.7651 35.8742 74.1656 35.8172 74.5889 35.8172C75.0494 35.8172 75.427 35.897 75.7245 36.0593C76.0191 36.2217 76.2451 36.4381 76.3996 36.7115C76.554 36.9849 76.6627 37.2925 76.7228 37.6343C76.7829 37.9761 76.8143 38.3236 76.8143 38.6739V43.208ZM79.7863 21.731H69.955V4.88448H73.8881V18.8003H79.7863V21.731Z" fill="black"/>
<path fill-rule="evenodd" clip-rule="evenodd" d="M108.596 38.6437C108.431 38.326 108.205 38.0768 107.928 37.9016C107.647 37.7263 107.336 37.6359 106.992 37.6359C106.649 37.6359 106.324 37.7263 106.044 37.907C105.763 38.0878 105.543 38.337 105.381 38.6492C105.218 38.9614 105.136 39.3229 105.136 39.7282C105.136 40.1335 105.218 40.4922 105.381 40.8044C105.543 41.1194 105.763 41.3631 106.044 41.5411C106.324 41.7164 106.64 41.804 106.992 41.804C107.345 41.804 107.647 41.7136 107.928 41.5329C108.205 41.3521 108.431 41.1057 108.596 40.7935C108.764 40.4785 108.849 40.1198 108.849 39.7145C108.849 39.3092 108.764 38.9586 108.596 38.6437ZM108.596 38.6437C108.431 38.326 108.205 38.0768 107.928 37.9016C107.647 37.7263 107.336 37.6359 106.992 37.6359C106.649 37.6359 106.324 37.7263 106.044 37.907C105.763 38.0878 105.543 38.337 105.381 38.6492C105.218 38.9614 105.136 39.3229 105.136 39.7282C105.136 40.1335 105.218 40.4922 105.381 40.8044C105.543 41.1194 105.763 41.3631 106.044 41.5411C106.324 41.7164 106.64 41.804 106.992 41.804C107.345 41.804 107.647 41.7136 107.928 41.5329C108.205 41.3521 108.431 41.1057 108.596 40.7935C108.764 40.4785 108.849 40.1198 108.849 39.7145C108.849 39.3092 108.764 38.9586 108.596 38.6437ZM98.5404 0V46.9525H126.903V0H98.5404ZM110.453 41.1002C110.285 41.5383 110.043 41.9245 109.721 42.2613C109.402 42.6009 109.011 42.8638 108.549 43.0555C108.09 43.2472 107.57 43.3431 106.992 43.3431C106.415 43.3431 105.895 43.2472 105.436 43.0555C104.974 42.8638 104.583 42.6009 104.264 42.2613C103.942 41.9245 103.695 41.5383 103.524 41.1002C103.354 40.6648 103.268 40.2074 103.268 39.7282C103.268 39.2489 103.354 38.7752 103.524 38.3397C103.695 37.9043 103.942 37.5182 104.264 37.1786C104.583 36.8417 104.974 36.5788 105.436 36.3871C105.895 36.1954 106.415 36.0996 106.992 36.0996C107.57 36.0996 108.087 36.1954 108.544 36.3871C109 36.5788 109.391 36.8417 109.715 37.1786C110.04 37.5182 110.285 37.9043 110.453 38.3397C110.62 38.7752 110.703 39.238 110.703 39.7282C110.703 40.2184 110.62 40.6648 110.453 41.1002ZM112.722 7.51459H109.886V20.8951H106.104V7.51459H103.268V4.69662H112.722V7.51459ZM107.928 37.9016C107.647 37.7263 107.336 37.6359 106.992 37.6359C106.649 37.6359 106.324 37.7263 106.044 37.907C105.763 38.0878 105.543 38.337 105.381 38.6492C105.218 38.9614 105.136 39.3229 105.136 39.7282C105.136 40.1335 105.218 40.4922 105.381 40.8044C105.543 41.1194 105.763 41.3631 106.044 41.5411C106.324 41.7164 106.64 41.804 106.992 41.804C107.345 41.804 107.647 41.7136 107.928 41.5329C108.205 41.3521 108.431 41.1057 108.596 40.7935C108.764 40.4785 108.849 40.1198 108.849 39.7145C108.849 39.3092 108.764 38.9586 108.596 38.6437C108.431 38.326 108.205 38.0768 107.928 37.9016Z" fill="black"/>
<path fill-rule="evenodd" clip-rule="evenodd" d="M130.909 0V46.969H160.406V0H130.909ZM135.823 4.88448H139.756V21.731H135.823V4.88448ZM140.219 37.3509C139.647 37.3509 139.135 37.462 138.683 37.6813C138.231 37.9006 137.908 38.2168 137.711 38.6269V43.0728H135.823V35.793H137.556V37.294C137.819 36.7899 138.151 36.3911 138.557 36.1035C138.961 35.813 139.387 35.6535 139.839 35.625H140.079C140.134 35.625 140.182 35.6307 140.219 35.6392V37.3509Z" fill="black"/>
</g>
<defs>
<clipPath id="clip0_4655_6078">
<rect width="160.406" height="47.1042" fill="white"/>
</clipPath>
</defs>
</svg>
