<svg width="13" height="13" viewBox="0 0 13 13" fill="none" xmlns="http://www.w3.org/2000/svg">
<path fill-rule="evenodd" clip-rule="evenodd" d="M11.7 13C10.982 13 10.4 12.418 10.4 11.7C10.4 10.982 10.982 10.4 11.7 10.4C12.418 10.4 13 10.982 13 11.7C13 12.418 12.418 13 11.7 13ZM11.7 7.8C10.982 7.8 10.4 7.21797 10.4 6.5C10.4 5.78203 10.982 5.2 11.7 5.2C12.418 5.2 13 5.78203 13 6.5C13 7.21797 12.418 7.8 11.7 7.8ZM11.7 2.6C10.982 2.6 10.4 2.01797 10.4 1.3C10.4 0.58203 10.982 0 11.7 0C12.418 0 13 0.58203 13 1.3C13 2.01797 12.418 2.6 11.7 2.6ZM6.5 13C5.78203 13 5.2 12.418 5.2 11.7C5.2 10.982 5.78203 10.4 6.5 10.4C7.21797 10.4 7.8 10.982 7.8 11.7C7.8 12.418 7.21797 13 6.5 13ZM6.5 7.8C5.78203 7.8 5.2 7.21797 5.2 6.5C5.2 5.78203 5.78203 5.2 6.5 5.2C7.21797 5.2 7.8 5.78203 7.8 6.5C7.8 7.21797 7.21797 7.8 6.5 7.8ZM6.5 2.6C5.78203 2.6 5.2 2.01797 5.2 1.3C5.2 0.58203 5.78203 0 6.5 0C7.21797 0 7.8 0.58203 7.8 1.3C7.8 2.01797 7.21797 2.6 6.5 2.6ZM1.3 13C0.58203 13 0 12.418 0 11.7C0 10.982 0.58203 10.4 1.3 10.4C2.01797 10.4 2.6 10.982 2.6 11.7C2.6 12.418 2.01797 13 1.3 13ZM1.3 7.8C0.58203 7.8 0 7.21797 0 6.5C0 5.78203 0.58203 5.2 1.3 5.2C2.01797 5.2 2.6 5.78203 2.6 6.5C2.6 7.21797 2.01797 7.8 1.3 7.8ZM1.3 2.6C0.58203 2.6 0 2.01797 0 1.3C0 0.58203 0.58203 0 1.3 0C2.01797 0 2.6 0.58203 2.6 1.3C2.6 2.01797 2.01797 2.6 1.3 2.6Z" fill="black"/>
</svg>
