<svg width="21" height="20" viewBox="0 0 21 20" fill="none" xmlns="http://www.w3.org/2000/svg">
<path d="M10.4356 9.17013e-07C10.3474 -0.000180211 10.2612 0.026475 10.1885 0.0764275L0.188519 6.94633C0.070502 7.02745 -5.75238e-06 7.16148 3.51998e-10 7.30469V9.26121C0.000113875 9.42279 0.089815 9.57098 0.23292 9.64601C0.376025 9.72104 0.548933 9.71053 0.681895 9.61872L1.73913 8.88757V19.5652C1.73915 19.8053 1.9338 20 2.17391 20H6.95652C7.19664 20 7.39128 19.8053 7.3913 19.5652V13.913C7.3913 12.2272 8.74892 10.8696 10.4348 10.8696C12.1206 10.8696 13.4783 12.2272 13.4783 13.913V19.5652C13.4783 19.8053 13.6729 20 13.913 20H18.6957C18.9358 20 19.1304 19.8053 19.1304 19.5652V8.88757L20.1877 9.61872C20.3206 9.71053 20.4935 9.72104 20.6366 9.64601C20.7797 9.57098 20.8695 9.42279 20.8696 9.26121V7.30469C20.8696 7.16148 20.7991 7.02745 20.681 6.94633L10.681 0.0764275C10.6088 0.026803 10.5233 0.000163205 10.4356 9.17013e-07ZM10.4348 0.962127L20 7.53312V8.43156L10.6819 1.99049C10.5332 1.88777 10.3364 1.88777 10.1877 1.99049L0.869565 8.43156V7.53312L10.4348 0.962127ZM10.4348 2.87619L18.2609 8.28635V19.1304H14.3478V13.913C14.3478 11.7572 12.5907 10 10.4348 10C8.27891 10 6.52174 11.7572 6.52174 13.913V19.1304H2.6087V8.28635L10.4348 2.87619Z" fill="black"/>
</svg>
