<svg width="4" height="6" viewBox="0 0 4 6" fill="none" xmlns="http://www.w3.org/2000/svg">
<path d="M4 3.83402C4 4.26003 3.9127 4.63347 3.7381 4.95436C3.56349 5.28077 3.32011 5.53527 3.00794 5.71784C2.70106 5.90595 2.34921 6 1.95238 6C1.60847 6 1.28836 5.93361 0.992064 5.80083C0.701058 5.67358 0.455026 5.49101 0.253968 5.25311L0.722222 4.6888C1.03439 5.09267 1.43386 5.29461 1.92063 5.29461C2.17989 5.29461 2.40476 5.23375 2.59524 5.11203C2.79101 4.99585 2.9418 4.82988 3.04762 4.61411C3.15344 4.39834 3.20635 4.14661 3.20635 3.85892V2.27386C3.20635 1.95851 3.15608 1.68465 3.05556 1.45228C2.96032 1.21992 2.82275 1.03734 2.64286 0.904564C2.46296 0.771784 2.25661 0.705394 2.02381 0.705394C1.79101 0.705394 1.58466 0.769018 1.40476 0.896265C1.22487 1.02351 1.08466 1.19502 0.984127 1.41079C0.883598 1.62656 0.833333 1.87552 0.833333 2.15768C0.833333 2.43983 0.883598 2.6888 0.984127 2.90456C1.08995 3.1148 1.2328 3.28077 1.4127 3.40249C1.59788 3.5242 1.80952 3.58506 2.04762 3.58506C2.25926 3.58506 2.45238 3.53527 2.62698 3.43568C2.80688 3.33057 2.95238 3.18949 3.06349 3.01245C3.17989 2.82988 3.24868 2.62794 3.26984 2.40664L3.43651 2.56432C3.46296 2.8852 3.4127 3.17842 3.28571 3.44398C3.16402 3.70401 2.98148 3.91148 2.7381 4.06639C2.5 4.21577 2.21429 4.29046 1.88095 4.29046C1.52646 4.29046 1.20635 4.20194 0.920635 4.0249C0.634921 3.84232 0.410053 3.59059 0.246032 3.26971C0.0820106 2.94329 0 2.57261 0 2.15768C0 1.74827 0.0846561 1.38036 0.253968 1.05394C0.42328 0.727524 0.648148 0.470263 0.928571 0.282157C1.20899 0.0940525 1.52381 0 1.87302 0C2.2963 0 2.64021 0.127248 2.90476 0.381743C3.1746 0.636238 3.33862 0.97372 3.39683 1.39419H3.21429V0.13278H4V3.83402Z" fill="black"/>
</svg>
