<svg width="14" height="14" viewBox="0 0 14 14" fill="none" xmlns="http://www.w3.org/2000/svg">
<g>
<rect x="0.336988" y="0.336969" width="12.787" height="12.787" rx="2.3555" stroke="black" stroke-width="0.673"/>
<path d="M6.81384 1.94562C9.45842 1.94576 11.5375 4.08993 11.5375 6.74542V6.7464C11.5463 9.35148 9.44425 11.4706 6.83923 11.4847C6.34982 11.4846 6.02012 11.4499 5.72302 11.3548C5.42612 11.2598 5.13827 11.0982 4.74353 10.8128L4.47986 10.6224L4.28064 10.8792C4.08387 11.1321 3.62577 11.3948 3.19958 11.4847C2.9878 11.5293 2.83486 11.5201 2.75037 11.4876C2.71371 11.4735 2.69741 11.4579 2.68884 11.4466C2.6847 11.4411 2.67853 11.4321 2.67322 11.4173L2.6615 11.3538C2.65762 10.6497 2.49993 10.0547 2.33533 9.44952C2.13749 8.69728 1.92322 7.89095 1.92322 6.71808C1.92322 4.00147 4.15135 1.94562 6.81384 1.94562ZM6.89978 3.79327C5.32166 3.71184 4.11589 4.81774 3.85486 6.45929C3.74947 7.12481 3.7908 7.85178 3.89587 8.42316C3.94839 8.70867 4.01953 8.96828 4.10291 9.16925C4.14427 9.2689 4.19393 9.36664 4.2533 9.44757C4.2926 9.50111 4.35615 9.57577 4.44861 9.62628L4.55115 9.6673L4.55798 9.66827C4.7103 9.70504 4.85003 9.64985 4.91736 9.61945C5.00207 9.58116 5.08703 9.52719 5.16345 9.47296C5.24388 9.41588 5.32553 9.34958 5.40271 9.28253C5.76483 9.48516 6.16665 9.60949 6.5824 9.64288H6.89294C8.37442 9.56604 9.59215 8.3913 9.69373 6.88019H9.6947V6.8714C9.75357 5.3639 8.67518 4.07215 7.21912 3.83136V3.80988L6.89978 3.79327Z" stroke="black" stroke-width="0.673"/>
</g>
</svg>
