<svg width="32" height="38" viewBox="0 0 32 38" fill="none" xmlns="http://www.w3.org/2000/svg">
<g clip-path="url(#clip0_3627_9341)">
<path d="M30.9914 8.77266L22.716 0.623437C22.6047 0.512109 22.4489 0.445312 22.2856 0.445312H7.01875C4.71055 0.445312 2.84024 2.41953 2.84024 4.85391V21.1227H0.806641V32.1516H2.84024V33.1461C2.84024 35.573 4.71797 37.5547 7.01875 37.5547H27.0133C29.3215 37.5547 31.1918 35.5805 31.1918 33.1461V9.25508C31.1918 9.07695 31.125 8.89883 30.9914 8.77266ZM22.0778 1.81094L29.277 8.90625H25.3582C23.5473 8.90625 22.0778 7.45898 22.0778 5.68516V1.81094ZM29.9301 33.1461C29.9301 34.8457 28.6239 36.2262 27.0133 36.2262H7.01875C5.40821 36.2262 4.10196 34.8457 4.10196 33.1461V32.1516H17.9809C20.6899 32.1516 22.8793 29.6801 22.8793 26.6371C22.8793 23.5941 20.6825 21.1227 17.9809 21.1227H4.10196V4.85391C4.10196 3.1543 5.40821 1.77383 7.01875 1.77383H20.816V5.68516C20.816 8.19375 22.8496 10.2348 25.3582 10.2348H29.9301V33.1461ZM4.71055 29.4203V23.8539H6.84063C7.45664 23.8539 7.93906 24.0098 8.28047 24.3289C8.62188 24.648 8.8 25.0637 8.8 25.5832C8.8 26.1027 8.6293 26.5258 8.28047 26.8375C7.93164 27.1492 7.44922 27.3125 6.84063 27.3125H5.63828V29.4203H4.71055ZM9.92813 29.4203V23.8539H11.7688C12.4739 23.8539 13.0453 24.0766 13.4907 24.5145C13.936 24.9523 14.1512 25.5238 14.1512 26.2141V27.0602C14.1512 27.7578 13.9285 28.3219 13.4907 28.7598C13.0453 29.1977 12.4739 29.4203 11.7688 29.4203H9.92813ZM18.5821 26.3031V27.0453H16.3407V29.4203H15.4055V23.8539H18.968V24.5961H16.3332V26.2957H18.5821V26.3031Z" fill="#ED1C24"/>
<path d="M7.62031 26.2883C7.79101 26.1027 7.88007 25.8727 7.88007 25.5906C7.88007 25.3086 7.79101 25.0711 7.62031 24.8855C7.44961 24.7 7.18984 24.6035 6.84101 24.6035H5.63867V26.5703H6.84101C7.18984 26.5629 7.44218 26.4738 7.62031 26.2883Z" fill="#ED1C24"/>
<path d="M11.7703 24.6035H10.8574V28.6855H11.7703C12.2156 28.6855 12.5718 28.5371 12.8316 28.2328C13.0914 27.9285 13.2249 27.5426 13.2249 27.0676V26.2141C13.2249 25.7465 13.0914 25.3605 12.8316 25.0563C12.5718 24.752 12.2156 24.6035 11.7703 24.6035Z" fill="#ED1C24"/>
</g>
<defs>
<clipPath id="clip0_3627_9341">
<rect width="32" height="38" fill="white"/>
</clipPath>
</defs>
</svg>
