<svg width="88" height="88" viewBox="0 0 88 88" fill="none" xmlns="http://www.w3.org/2000/svg">
<path d="M44 0C19.6969 0 0 19.6969 0 44C0 68.3031 19.6969 88 44 88C68.3031 88 88 68.3031 88 44C88 19.6969 68.3031 0 44 0ZM64.0234 47.5234L39.2734 62.6484C38.6203 63.0438 37.8641 63.25 37.125 63.25C34.772 63.25 33 61.325 33 59.125V28.875C33 26.6922 34.7531 24.75 37.125 24.75C37.8716 24.75 38.6165 24.9521 39.2752 25.3543L64.0252 40.4793C65.2438 41.2328 66 42.5563 66 44C66 45.4438 65.2438 46.7672 64.0234 47.5234Z" fill="white"/>
<path d="M64.0234 47.5234L39.2734 62.6484C38.6203 63.0438 37.8641 63.25 37.125 63.25C34.772 63.25 33 61.325 33 59.125V28.875C33 26.6922 34.7531 24.75 37.125 24.75C37.8716 24.75 38.6165 24.9521 39.2752 25.3543L64.0252 40.4793C65.2438 41.2328 66 42.5563 66 44C66 45.4438 65.2438 46.7672 64.0234 47.5234Z" fill="black"/>
</svg>
