<svg width="22" height="22" viewBox="0 0 22 22" fill="none" xmlns="http://www.w3.org/2000/svg">
<path d="M10.5312 0C11.1773 0.000107961 11.7011 0.523816 11.7012 1.16992V9.36133H19.8916C20.5378 9.36133 21.0625 9.88501 21.0625 10.5312C21.0624 11.1774 20.5378 11.7012 19.8916 11.7012H11.7012V19.8916C11.7012 20.5378 11.1774 21.0624 10.5312 21.0625C9.88501 21.0625 9.36133 20.5378 9.36133 19.8916V11.7012H1.16992C0.52384 11.7011 9.70853e-05 11.1773 0 10.5312C2.82449e-08 9.88508 0.52378 9.36144 1.16992 9.36133H9.36133V1.16992C9.3614 0.523749 9.88506 0 10.5312 0Z" fill="white"/>
</svg>
