<svg width="13" height="13" viewBox="0 0 13 13" fill="none" xmlns="http://www.w3.org/2000/svg">
<path d="M5.47351 1.36819C4.93441 1.36819 4.4006 1.47438 3.90254 1.68068C3.40448 1.88699 2.95194 2.18937 2.57074 2.57058C2.18955 2.95178 1.88716 3.40433 1.68086 3.9024C1.47456 4.40046 1.36838 4.93429 1.36838 5.47339C1.36838 6.01249 1.47456 6.54631 1.68086 7.04438C1.88716 7.54244 2.18955 7.995 2.57074 8.3762C2.95194 8.7574 3.40448 9.05979 3.90254 9.2661C4.4006 9.4724 4.93441 9.57858 5.47351 9.57858C6.56226 9.57858 7.60641 9.14607 8.37627 8.3762C9.14614 7.60633 9.57864 6.56215 9.57864 5.47339C9.57864 4.38462 9.14614 3.34045 8.37627 2.57058C7.60641 1.8007 6.56226 1.36819 5.47351 1.36819ZM6.35256e-09 5.47339C3.28859e-05 4.60045 0.208846 3.74018 0.609013 2.96438C1.00918 2.18857 1.58909 1.51972 2.30036 1.01366C3.01163 0.507591 3.83361 0.178984 4.69772 0.0552586C5.56183 -0.0684668 6.443 0.0162784 7.26769 0.302422C8.09239 0.588565 8.83668 1.06781 9.43846 1.70015C10.0402 2.3325 10.4821 3.09961 10.727 3.93746C10.972 4.77532 11.0131 5.65962 10.8467 6.51656C10.6804 7.3735 10.3115 8.17823 9.7709 8.8636L12.7943 11.8262C12.8586 11.8891 12.9098 11.964 12.9451 12.0467C12.9804 12.1294 12.999 12.2182 13 12.3081C13.0009 12.398 12.9842 12.4872 12.9506 12.5707C12.9171 12.6541 12.8675 12.7301 12.8046 12.7943C12.7417 12.8586 12.6668 12.9098 12.5841 12.9451C12.5014 12.9804 12.4125 12.999 12.3226 13C12.2328 13.0009 12.1435 12.9842 12.0601 12.9506C11.9767 12.9171 11.9007 12.8675 11.8365 12.8046L8.79593 9.82353C7.98485 10.443 7.01673 10.8234 6.00088 10.9218C4.98502 11.0201 3.96191 10.8325 3.04708 10.38C2.13224 9.92758 1.36212 9.22836 0.823687 8.36133C0.285252 7.49431 -4.9156e-05 6.49401 6.35256e-09 5.47339Z" fill="black"/>
</svg>
