<svg width="23" height="20" viewBox="0 0 23 20" fill="none" xmlns="http://www.w3.org/2000/svg">
<path d="M20.4514 2.22222C20.4514 2.22222 9.70833 2.22222 8.85417 2.22222C8.52778 2.22222 8.11111 1.53472 7.56944 0.902778C7.07639 0.326389 6.54861 0 6.14583 0C5.625 0 1.95833 0 1.95833 0C0.881944 0 0 0.618056 0 1.6875V17.9792C0 19.0556 0.881944 20 1.95833 20H20.4514C21.5278 20 22.2222 19.0556 22.2222 17.9792V3.94444C22.2222 2.86806 21.5278 2.22222 20.4514 2.22222ZM1.95833 1.11111H5C5 1.11111 5.51389 1.11111 5.78472 1.11111C6.05556 1.11111 6.38195 1.22222 6.77778 1.6875C7.61806 2.68056 7.85417 3.33333 8.85417 3.33333H20.4514C20.9097 3.33333 21.1111 3.48611 21.1111 3.94444V5.55556H1.11111V1.6875C1.11111 1.0625 1.82639 1.11111 1.95833 1.11111ZM20.4514 18.8889H1.95833C1.50694 18.8889 1.11111 18.4583 1.11111 17.9792V6.66667H21.1111V17.9792C21.1111 18.3958 20.9306 18.8889 20.4514 18.8889Z" fill="black"/>
</svg>
