<svg width="39" height="39" viewBox="0 0 39 39" fill="none" xmlns="http://www.w3.org/2000/svg">
<g clip-path="url(#clip0_4142_14149)">
<path fill-rule="evenodd" clip-rule="evenodd" d="M33.3169 5.66904C29.6521 2.01454 24.7771 0.00244039 19.5822 0C8.87945 0 0.167971 8.66949 0.163066 19.3244C0.159388 22.731 1.05565 26.0562 2.75503 28.987L0 39L10.2944 36.313C13.1292 37.853 16.3232 38.6632 19.5735 38.6669H19.5808C30.2836 38.6669 38.9976 29.9974 39 19.3389C39.0024 14.1763 36.9855 9.31988 33.3169 5.66904ZM19.5808 35.4016H19.5749C16.6775 35.4016 13.8366 34.6244 11.3599 33.1626L10.7701 32.8149L4.66162 34.4095L6.29237 28.4844L5.90861 27.8754C4.29259 25.3179 3.43921 22.3612 3.43921 19.3254C3.44412 10.4705 10.683 3.26521 19.5882 3.26521C23.8992 3.26643 27.9516 4.94054 30.9996 7.97517C34.0466 11.011 35.7239 15.0476 35.7226 19.3389C35.7177 28.1952 28.4775 35.4016 19.5808 35.4016ZM28.4358 23.3705C27.9502 23.1288 25.5644 21.9612 25.1205 21.7989C24.6754 21.6366 24.3518 21.5572 24.0293 22.0404C23.7032 22.5237 22.775 23.6121 22.4904 23.9342C22.2084 24.2576 21.924 24.2978 21.441 24.0563C20.9541 23.8146 19.3908 23.3046 17.5381 21.6597C16.0963 20.3785 15.1203 18.7983 14.8383 18.3139C14.5551 17.8296 14.8101 17.5709 15.0516 17.328C15.2698 17.112 15.5372 16.7655 15.78 16.4813C16.0215 16.2006 16.1037 15.9979 16.2656 15.6771C16.4274 15.3537 16.3464 15.0719 16.225 14.8303C16.1037 14.5899 15.1326 12.2118 14.7292 11.2454C14.3344 10.3046 13.9359 10.4315 13.6367 10.4168C13.3547 10.401 13.031 10.3973 12.7061 10.3973C12.3812 10.3973 11.8565 10.5206 11.4138 11.0038C10.9663 11.487 9.71199 12.6547 9.71199 15.0317C9.71199 17.4074 11.453 19.7038 11.6958 20.0283C11.9386 20.3505 15.1167 25.2276 19.983 27.319C21.1405 27.8169 22.0453 28.1121 22.7503 28.3367C23.9127 28.704 24.9709 28.6515 25.8058 28.527C26.739 28.3891 28.6763 27.3592 29.082 26.2305C29.4867 25.1019 29.4865 24.1356 29.364 23.9342C29.2439 23.7317 28.9225 23.6133 28.4358 23.3705Z" fill="#2EA649"/>
</g>
<defs>
<clipPath id="clip0_4142_14149">
<rect width="39" height="39" fill="white"/>
</clipPath>
</defs>
</svg>
