<svg width="100" height="14" viewBox="0 0 100 14" fill="none" xmlns="http://www.w3.org/2000/svg">
<path d="M0 10.234L2.114 0.237999H4.872L5.32 7.714H5.376L9.128 0.237999H12.026L9.912 10.234H7.994L8.988 5.502C9.05333 5.18467 9.128 4.84867 9.212 4.494C9.30533 4.13 9.394 3.77533 9.478 3.43C9.57133 3.07533 9.65533 2.76267 9.73 2.492H9.674L5.782 10.234H3.864L3.444 2.492H3.388C3.36933 2.688 3.332 2.95867 3.276 3.304C3.22 3.64 3.15467 4.00867 3.08 4.41C3.01467 4.81133 2.94 5.20333 2.856 5.586L1.876 10.234H0Z" fill="black"/>
<path d="M14.4464 10.374C14.0824 10.374 13.7324 10.2853 13.3964 10.108C13.0697 9.92133 12.8037 9.62733 12.5984 9.226C12.393 8.81533 12.2904 8.274 12.2904 7.602C12.2904 7.10733 12.3417 6.61267 12.4444 6.118C12.5564 5.62333 12.7104 5.15667 12.9064 4.718C13.1117 4.27933 13.359 3.892 13.6484 3.556C13.9377 3.21067 14.2644 2.94 14.6284 2.744C15.0017 2.548 15.403 2.45 15.8324 2.45C16.159 2.45 16.439 2.49667 16.6724 2.59C16.915 2.68333 17.1204 2.814 17.2884 2.982C17.4657 3.15 17.6104 3.346 17.7224 3.57H17.7784L18.1704 2.59H19.7524L18.1284 10.234H16.5884L16.6864 9.24H16.6304C16.453 9.464 16.257 9.66 16.0424 9.828C15.8277 9.996 15.5897 10.1313 15.3284 10.234C15.067 10.3273 14.773 10.374 14.4464 10.374ZM15.2584 8.708C15.5384 8.708 15.7997 8.596 16.0424 8.372C16.285 8.148 16.4904 7.85867 16.6584 7.504C16.8357 7.14933 16.9617 6.776 17.0364 6.384C17.0737 6.19733 17.097 6.01533 17.1064 5.838C17.125 5.65133 17.1344 5.45067 17.1344 5.236C17.1344 4.90933 17.0504 4.64333 16.8824 4.438C16.7144 4.22333 16.481 4.116 16.1824 4.116C15.977 4.116 15.7857 4.18133 15.6084 4.312C15.431 4.44267 15.263 4.62 15.1044 4.844C14.955 5.068 14.8244 5.32467 14.7124 5.614C14.6097 5.90333 14.5257 6.21133 14.4604 6.538C14.4044 6.85533 14.3764 7.17733 14.3764 7.504C14.3764 7.90533 14.451 8.20867 14.6004 8.414C14.759 8.61 14.9784 8.708 15.2584 8.708Z" fill="black"/>
<path d="M19.2449 13.594L21.5829 2.59H23.1509L23.0389 3.752H23.0949C23.2535 3.528 23.4355 3.318 23.6409 3.122C23.8555 2.926 24.0982 2.76733 24.3689 2.646C24.6395 2.51533 24.9382 2.45 25.2649 2.45C25.6382 2.45 25.9882 2.54333 26.3149 2.73C26.6415 2.90733 26.9075 3.20133 27.1129 3.612C27.3182 4.01333 27.4209 4.55467 27.4209 5.236C27.4209 5.73067 27.3649 6.22533 27.2529 6.72C27.1502 7.21467 26.9962 7.68133 26.7909 8.12C26.5949 8.55867 26.3522 8.946 26.0629 9.282C25.7735 9.618 25.4422 9.884 25.0689 10.08C24.7049 10.276 24.3082 10.374 23.8789 10.374C23.5709 10.374 23.3095 10.3273 23.0949 10.234C22.8802 10.1313 22.6982 9.996 22.5489 9.828C22.3995 9.65067 22.2642 9.45933 22.1429 9.254H22.0869C22.0589 9.62733 22.0215 9.968 21.9749 10.276C21.9282 10.584 21.8675 10.9153 21.7929 11.27L21.3029 13.594H19.2449ZM23.5289 8.708C23.7342 8.708 23.9255 8.64267 24.1029 8.512C24.2802 8.38133 24.4435 8.204 24.5929 7.98C24.7515 7.756 24.8822 7.49933 24.9849 7.21C25.0969 6.92067 25.1809 6.61267 25.2369 6.286C25.3022 5.95933 25.3349 5.63733 25.3349 5.32C25.3349 4.91867 25.2602 4.62 25.1109 4.424C24.9615 4.21867 24.7375 4.116 24.4389 4.116C24.2149 4.116 24.0142 4.172 23.8369 4.284C23.6595 4.396 23.5009 4.55 23.3609 4.746C23.2302 4.93267 23.1135 5.14733 23.0109 5.39C22.9082 5.63267 22.8242 5.88 22.7589 6.132C22.7029 6.384 22.6562 6.63133 22.6189 6.874C22.5909 7.10733 22.5769 7.31733 22.5769 7.504C22.5769 7.868 22.6609 8.162 22.8289 8.386C23.0062 8.60067 23.2395 8.708 23.5289 8.708Z" fill="black"/>
<path d="M30.385 10.374C29.7504 10.374 29.2744 10.178 28.957 9.786C28.6397 9.38467 28.481 8.848 28.481 8.176C28.481 8.008 28.495 7.82133 28.523 7.616C28.551 7.40133 28.5884 7.17733 28.635 6.944L29.545 2.59H31.603L30.665 7.056C30.6277 7.20533 30.5997 7.35 30.581 7.49C30.5624 7.63 30.553 7.756 30.553 7.868C30.553 8.15733 30.609 8.372 30.721 8.512C30.833 8.64267 31.001 8.708 31.225 8.708C31.5424 8.708 31.8224 8.57733 32.065 8.316C32.317 8.05467 32.5364 7.7 32.723 7.252C32.9097 6.804 33.059 6.30933 33.171 5.768L33.829 2.59H35.887L34.949 7.056C34.9117 7.20533 34.8837 7.35 34.865 7.49C34.8464 7.63 34.837 7.756 34.837 7.868C34.837 8.15733 34.893 8.372 35.005 8.512C35.117 8.64267 35.285 8.708 35.509 8.708C35.7424 8.708 35.957 8.63333 36.153 8.484C36.3584 8.32533 36.5404 8.11067 36.699 7.84C36.867 7.56933 37.0117 7.25667 37.133 6.902C37.2637 6.538 37.371 6.15533 37.455 5.754L38.127 2.59H40.185L38.561 10.234H37.007L37.147 8.82H37.091C36.895 9.11867 36.6757 9.38933 36.433 9.632C36.1997 9.86533 35.9337 10.0473 35.635 10.178C35.3457 10.3087 35.0237 10.374 34.669 10.374C34.4077 10.374 34.1744 10.3367 33.969 10.262C33.773 10.1967 33.6004 10.0987 33.451 9.968C33.311 9.828 33.1944 9.66467 33.101 9.478C33.0077 9.282 32.9377 9.06267 32.891 8.82H32.835C32.6484 9.11867 32.429 9.38933 32.177 9.632C31.9344 9.86533 31.6637 10.0473 31.365 10.178C31.0664 10.3087 30.7397 10.374 30.385 10.374Z" fill="black"/>
<path d="M39.6849 13.594L42.0229 2.59H43.5909L43.4789 3.752H43.5349C43.6935 3.528 43.8755 3.318 44.0809 3.122C44.2955 2.926 44.5382 2.76733 44.8089 2.646C45.0795 2.51533 45.3782 2.45 45.7049 2.45C46.0782 2.45 46.4282 2.54333 46.7549 2.73C47.0815 2.90733 47.3475 3.20133 47.5529 3.612C47.7582 4.01333 47.8609 4.55467 47.8609 5.236C47.8609 5.73067 47.8049 6.22533 47.6929 6.72C47.5902 7.21467 47.4362 7.68133 47.2309 8.12C47.0349 8.55867 46.7922 8.946 46.5029 9.282C46.2135 9.618 45.8822 9.884 45.5089 10.08C45.1449 10.276 44.7482 10.374 44.3189 10.374C44.0109 10.374 43.7495 10.3273 43.5349 10.234C43.3202 10.1313 43.1382 9.996 42.9889 9.828C42.8395 9.65067 42.7042 9.45933 42.5829 9.254H42.5269C42.4989 9.62733 42.4615 9.968 42.4149 10.276C42.3682 10.584 42.3075 10.9153 42.2329 11.27L41.7429 13.594H39.6849ZM43.9689 8.708C44.1742 8.708 44.3655 8.64267 44.5429 8.512C44.7202 8.38133 44.8835 8.204 45.0329 7.98C45.1915 7.756 45.3222 7.49933 45.4249 7.21C45.5369 6.92067 45.6209 6.61267 45.6769 6.286C45.7422 5.95933 45.7749 5.63733 45.7749 5.32C45.7749 4.91867 45.7002 4.62 45.5509 4.424C45.4015 4.21867 45.1775 4.116 44.8789 4.116C44.6549 4.116 44.4542 4.172 44.2769 4.284C44.0995 4.396 43.9409 4.55 43.8009 4.746C43.6702 4.93267 43.5535 5.14733 43.4509 5.39C43.3482 5.63267 43.2642 5.88 43.1989 6.132C43.1429 6.384 43.0962 6.63133 43.0589 6.874C43.0309 7.10733 43.0169 7.31733 43.0169 7.504C43.0169 7.868 43.1009 8.162 43.2689 8.386C43.4462 8.60067 43.6795 8.708 43.9689 8.708Z" fill="black"/>
<path d="M48.0983 13.594C47.8556 13.594 47.655 13.58 47.4963 13.552C47.3376 13.5333 47.2023 13.5053 47.0903 13.468V11.83C47.2116 11.8487 47.3376 11.8673 47.4683 11.886C47.5896 11.9047 47.7296 11.914 47.8883 11.914C48.327 11.914 48.6863 11.788 48.9663 11.536C49.2463 11.284 49.489 10.962 49.6943 10.57L49.8763 10.234L48.7563 2.59H50.7723L51.1503 6.132C51.1783 6.33733 51.197 6.56133 51.2063 6.804C51.2156 7.04667 51.2203 7.28467 51.2203 7.518C51.2296 7.742 51.2343 7.94733 51.2343 8.134H51.2903C51.3556 7.97533 51.421 7.80267 51.4863 7.616C51.5516 7.42933 51.6263 7.224 51.7103 7C51.8036 6.76667 51.911 6.524 52.0323 6.272L53.8103 2.59H56.0503L51.4023 11.326C51.1316 11.8393 50.8236 12.264 50.4783 12.6C50.1423 12.936 49.7736 13.1833 49.3723 13.342C48.9803 13.51 48.5556 13.594 48.0983 13.594Z" fill="black"/>
<path d="M55.2881 10.234L56.9121 2.59H58.4801L58.3401 4.004H58.3961C58.5921 3.696 58.8067 3.42533 59.0401 3.192C59.2827 2.95867 59.5487 2.77667 59.8381 2.646C60.1274 2.51533 60.4494 2.45 60.8041 2.45C61.3267 2.45 61.7327 2.59 62.0221 2.87C62.3114 3.14067 62.5027 3.51867 62.5961 4.004H62.6521C62.8481 3.696 63.0627 3.42533 63.2961 3.192C63.5387 2.95867 63.8094 2.77667 64.1081 2.646C64.4067 2.51533 64.7334 2.45 65.0881 2.45C65.7227 2.45 66.1987 2.65067 66.5161 3.052C66.8334 3.444 66.9921 3.976 66.9921 4.648C66.9921 4.816 66.9781 5.00733 66.9501 5.222C66.9221 5.42733 66.8847 5.64667 66.8381 5.88L65.9281 10.234H63.8701L64.8081 5.768C64.8454 5.60933 64.8734 5.46467 64.8921 5.334C64.9107 5.194 64.9201 5.068 64.9201 4.956C64.9201 4.66667 64.8641 4.45667 64.7521 4.326C64.6401 4.186 64.4721 4.116 64.2481 4.116C64.0147 4.116 63.7954 4.19067 63.5901 4.34C63.3941 4.48933 63.2121 4.69933 63.0441 4.97C62.8854 5.24067 62.7407 5.55333 62.6101 5.908C62.4887 6.26267 62.3861 6.64533 62.3021 7.056L61.6441 10.234H59.5861L60.5241 5.768C60.5614 5.60933 60.5894 5.46467 60.6081 5.334C60.6267 5.194 60.6361 5.068 60.6361 4.956C60.6361 4.66667 60.5801 4.45667 60.4681 4.326C60.3561 4.186 60.1881 4.116 59.9641 4.116C59.7307 4.116 59.5114 4.19533 59.3061 4.354C59.1101 4.50333 58.9281 4.71333 58.7601 4.984C58.6014 5.25467 58.4567 5.56733 58.3261 5.922C58.2047 6.27667 58.1021 6.65933 58.0181 7.07L57.3461 10.234H55.2881Z" fill="black"/>
<path d="M74.1724 10.374C73.4818 10.374 72.8891 10.2527 72.3944 10.01C71.9091 9.76733 71.5404 9.41733 71.2884 8.96C71.0364 8.49333 70.9104 7.93333 70.9104 7.28C70.9104 6.76667 70.9664 6.272 71.0784 5.796C71.1998 5.32 71.3724 4.88133 71.5964 4.48C71.8298 4.07867 72.1144 3.724 72.4504 3.416C72.7958 3.108 73.1924 2.87 73.6404 2.702C74.0884 2.534 74.5924 2.45 75.1524 2.45C75.7031 2.45 76.1838 2.52933 76.5944 2.688C77.0051 2.84667 77.3271 3.08 77.5604 3.388C77.7938 3.696 77.9104 4.06933 77.9104 4.508C77.9104 4.89067 77.8358 5.20333 77.6864 5.446C77.5464 5.68867 77.3504 5.88 77.0984 6.02C76.8558 6.16 76.5758 6.26733 76.2584 6.342V6.398C76.5851 6.49133 76.8698 6.65933 77.1124 6.902C77.3551 7.13533 77.4764 7.476 77.4764 7.924C77.4764 8.35333 77.3598 8.75467 77.1264 9.128C76.8931 9.50133 76.5338 9.80467 76.0484 10.038C75.5631 10.262 74.9378 10.374 74.1724 10.374ZM74.2004 8.932C74.4618 8.932 74.6811 8.89 74.8584 8.806C75.0358 8.71267 75.1711 8.58667 75.2644 8.428C75.3578 8.26933 75.4044 8.08733 75.4044 7.882C75.4044 7.67667 75.3531 7.50867 75.2504 7.378C75.1571 7.24733 75.0078 7.14933 74.8024 7.084C74.5971 7.01867 74.3218 6.986 73.9764 6.986H72.9824C72.9731 7.05133 72.9684 7.12133 72.9684 7.196C72.9684 7.27067 72.9684 7.34533 72.9684 7.42C72.9684 7.96133 73.0851 8.34867 73.3184 8.582C73.5611 8.81533 73.8551 8.932 74.2004 8.932ZM74.6344 5.572C74.8958 5.572 75.1198 5.53933 75.3064 5.474C75.4931 5.39933 75.6331 5.292 75.7264 5.152C75.8291 5.00267 75.8804 4.82533 75.8804 4.62C75.8804 4.40533 75.8058 4.23733 75.6564 4.116C75.5071 3.99467 75.3111 3.934 75.0684 3.934C74.8071 3.934 74.5598 4.004 74.3264 4.144C74.0931 4.27467 73.8878 4.466 73.7104 4.718C73.5331 4.96067 73.3838 5.24533 73.2624 5.572H74.6344Z" fill="black"/>
<path d="M88.0724 10.234L88.3384 8.932L88.7164 8.82C87.9977 9.912 87.013 10.458 85.7624 10.458C84.9784 10.458 84.283 10.2667 83.6764 9.884C83.0697 9.50133 82.5937 8.96933 82.2484 8.288C81.9124 7.60667 81.7444 6.82733 81.7444 5.95C81.7444 5.11933 81.8937 4.34467 82.1924 3.626C82.491 2.90733 82.9017 2.27733 83.4244 1.736C83.9564 1.19467 84.5724 0.77 85.2724 0.462C85.9724 0.154 86.7237 0 87.5264 0C88.3384 0 89.071 0.163333 89.7244 0.49C90.3777 0.816666 90.9097 1.28333 91.3204 1.89L89.6684 3.304C89.3977 2.89333 89.0804 2.58533 88.7164 2.38C88.3617 2.17467 87.9604 2.072 87.5124 2.072C87.0364 2.072 86.5977 2.17 86.1964 2.366C85.795 2.55267 85.4404 2.82333 85.1324 3.178C84.8337 3.52333 84.6004 3.934 84.4324 4.41C84.2737 4.87667 84.1944 5.39 84.1944 5.95C84.1944 6.43533 84.283 6.86 84.4604 7.224C84.647 7.588 84.9037 7.87267 85.2304 8.078C85.5664 8.28333 85.9537 8.386 86.3924 8.386C86.999 8.386 87.5497 8.22733 88.0444 7.91C88.5484 7.58333 88.931 7.14 89.1924 6.58L88.4224 8.498L88.9824 5.922L89.5424 6.468H86.5184L86.9104 4.606H91.4044L90.2144 10.234H88.0724Z" fill="black"/>
<path d="M91.641 7.126C91.641 6.54733 91.7484 6.00133 91.963 5.488C92.1777 4.97467 92.4717 4.522 92.845 4.13C93.2184 3.738 93.6477 3.43 94.133 3.206C94.6277 2.982 95.155 2.87 95.715 2.87C96.4524 2.87 97.0777 3.00533 97.591 3.276C98.1137 3.53733 98.515 3.91533 98.795 4.41C99.075 4.90467 99.215 5.502 99.215 6.202C99.215 6.78067 99.1077 7.32667 98.893 7.84C98.6784 8.35333 98.3844 8.806 98.011 9.198C97.6377 9.59 97.2037 9.898 96.709 10.122C96.2237 10.346 95.701 10.458 95.141 10.458C94.413 10.458 93.7877 10.3273 93.265 10.066C92.7424 9.79533 92.341 9.41267 92.061 8.918C91.781 8.414 91.641 7.81667 91.641 7.126ZM95.141 8.554C95.449 8.554 95.7337 8.44667 95.995 8.232C96.2564 8.01733 96.4664 7.73267 96.625 7.378C96.7837 7.014 96.863 6.622 96.863 6.202C96.863 5.76333 96.7604 5.418 96.555 5.166C96.3497 4.90467 96.0697 4.774 95.715 4.774C95.407 4.774 95.1224 4.88133 94.861 5.096C94.5997 5.31067 94.3897 5.59533 94.231 5.95C94.0724 6.30467 93.993 6.69667 93.993 7.126C93.993 7.56467 94.0957 7.91467 94.301 8.176C94.5064 8.428 94.7864 8.554 95.141 8.554Z" fill="black"/>
</svg>
