<svg width="12" height="12" viewBox="0 0 12 12" fill="none" xmlns="http://www.w3.org/2000/svg">
<path fill-rule="evenodd" clip-rule="evenodd" d="M10.8 12C10.1373 12 9.6 11.4627 9.6 10.8C9.6 10.1373 10.1373 9.6 10.8 9.6C11.4627 9.6 12 10.1373 12 10.8C12 11.4627 11.4627 12 10.8 12ZM10.8 2.4C10.1373 2.4 9.6 1.86274 9.6 1.2C9.6 0.537258 10.1373 0 10.8 0C11.4627 0 12 0.537258 12 1.2C12 1.86274 11.4627 2.4 10.8 2.4ZM6 7.2C5.33726 7.2 4.8 6.66274 4.8 6C4.8 5.33726 5.33726 4.8 6 4.8C6.66274 4.8 7.2 5.33726 7.2 6C7.2 6.66274 6.66274 7.2 6 7.2ZM1.2 12C0.537258 12 0 11.4627 0 10.8C0 10.1373 0.537258 9.6 1.2 9.6C1.86274 9.6 2.4 10.1373 2.4 10.8C2.4 11.4627 1.86274 12 1.2 12ZM1.2 2.4C0.537258 2.4 0 1.86274 0 1.2C0 0.537258 0.537258 0 1.2 0C1.86274 0 2.4 0.537258 2.4 1.2C2.4 1.86274 1.86274 2.4 1.2 2.4Z" fill="black"/>
<path d="M2.2998 8.49981C2.2998 9.16255 2.83706 9.6998 3.4998 9.6998C4.16255 9.6998 4.6998 9.16255 4.6998 8.49981C4.6998 7.83706 4.16255 7.2998 3.4998 7.2998C2.83706 7.2998 2.2998 7.83706 2.2998 8.49981Z" fill="black"/>
<path d="M7.2998 8.49981C7.2998 9.16255 7.83706 9.6998 8.49981 9.6998C9.16255 9.6998 9.6998 9.16255 9.6998 8.49981C9.6998 7.83706 9.16255 7.2998 8.49981 7.2998C7.83706 7.2998 7.2998 7.83706 7.2998 8.49981Z" fill="black"/>
<path d="M7.2998 3.49981C7.2998 4.16255 7.83706 4.6998 8.49981 4.6998C9.16255 4.6998 9.6998 4.16255 9.6998 3.49981C9.6998 2.83706 9.16255 2.2998 8.49981 2.2998C7.83706 2.2998 7.2998 2.83706 7.2998 3.49981Z" fill="black"/>
<path d="M2.2998 3.49981C2.2998 4.16255 2.83706 4.6998 3.49981 4.6998C4.16255 4.6998 4.6998 4.16255 4.6998 3.49981C4.6998 2.83706 4.16255 2.2998 3.49981 2.2998C2.83706 2.2998 2.2998 2.83706 2.2998 3.49981Z" fill="black"/>
</svg>
