<svg width="16" height="20" viewBox="0 0 16 20" fill="none" xmlns="http://www.w3.org/2000/svg">
<path d="M8.00195 0.5C9.99142 0.500072 11.8999 1.29049 13.3066 2.69727C14.7133 4.10408 15.5029 6.01251 15.5029 8.00195C15.5029 8.92273 15.1355 10.0412 14.5234 11.248C13.9163 12.4452 13.0933 13.682 12.2383 14.8252C10.53 17.109 8.72615 18.9769 8.35645 19.3516C8.30997 19.3984 8.25525 19.4365 8.19434 19.4619C8.13346 19.4873 8.06789 19.5 8.00195 19.5C7.93605 19.5 7.87042 19.4872 7.80957 19.4619C7.74862 19.4365 7.69299 19.3984 7.64648 19.3516C7.27629 18.9763 5.47261 17.1086 3.76465 14.8252C2.90959 13.682 2.08665 12.4452 1.47949 11.248C0.86749 10.0413 0.500073 8.92269 0.5 8.00195C0.5 6.01238 1.29043 4.1041 2.69727 2.69727C4.1041 1.29043 6.01238 0.5 8.00195 0.5ZM9.15039 5.22949C8.60212 5.00239 7.99806 4.94282 7.41602 5.05859C6.83406 5.1744 6.29946 5.46031 5.87988 5.87988C5.46031 6.29946 5.1744 6.83406 5.05859 7.41602C4.94282 7.99806 5.00239 8.60212 5.22949 9.15039C5.45661 9.6985 5.84164 10.1665 6.33496 10.4961C6.82839 10.8258 7.40851 11.002 8.00195 11.002C8.79764 11.0019 9.5604 10.6857 10.123 10.123C10.6857 9.5604 11.0019 8.79764 11.002 8.00195C11.002 7.40851 10.8258 6.82839 10.4961 6.33496C10.1665 5.84164 9.6985 5.45661 9.15039 5.22949Z" stroke="black"/>
</svg>
