<svg width="9" height="6" viewBox="0 0 9 6" fill="none" xmlns="http://www.w3.org/2000/svg">
<path d="M7.51833 6H9V2.31908C9 2.03468 8.97531 1.7526 8.92816 1.47514C8.88102 1.19769 8.79347 0.947977 8.66775 0.726012C8.54203 0.504046 8.36917 0.328322 8.14243 0.19653C7.91793 0.0647378 7.62609 0 7.26466 0C6.80669 0 6.39586 0.106358 6.03218 0.321387C5.66625 0.534104 5.36543 0.843929 5.12971 1.24855C5.05563 0.897108 4.88501 0.601156 4.61561 0.360693C4.34622 0.120231 3.97131 0 3.49314 0C3.01497 0 2.59067 0.104045 2.2225 0.309826C1.85433 0.515606 1.56024 0.811558 1.33799 1.19306V0.0901733H0V6H1.48167V2.55491C1.59167 2.19191 1.778 1.90058 2.04066 1.6763C2.30107 1.45434 2.58618 1.34335 2.86456 1.34335C3.14293 1.34335 3.36293 1.45202 3.52233 1.66936C3.67947 1.8867 3.76029 2.23121 3.76029 2.70058V6H5.24196V2.57803C5.35196 2.2104 5.53829 1.91445 5.7987 1.68555C6.06136 1.45665 6.34198 1.34335 6.6226 1.34335C6.90322 1.34335 7.12322 1.45433 7.28037 1.67399C7.43976 1.89595 7.51833 2.23815 7.51833 2.70058V6Z" fill="black"/>
</svg>
