<svg width="13" height="12" viewBox="0 0 13 12" fill="none" xmlns="http://www.w3.org/2000/svg">
<path d="M11.9641 1.45039C11.9641 1.45039 5.67937 1.45039 5.17969 1.45039C4.98875 1.45039 4.745 1.0482 4.42812 0.678516C4.13969 0.341328 3.83094 0.150391 3.59531 0.150391C3.29062 0.150391 1.14562 0.150391 1.14562 0.150391C0.515937 0.150391 0 0.511953 0 1.13758V10.6682C0 11.2979 0.515937 11.8504 1.14562 11.8504H11.9641C12.5938 11.8504 13 11.2979 13 10.6682V2.45789C13 1.8282 12.5938 1.45039 11.9641 1.45039ZM1.14562 0.800391H2.925C2.925 0.800391 3.22563 0.800391 3.38406 0.800391C3.5425 0.800391 3.73344 0.865391 3.965 1.13758C4.45656 1.71852 4.59469 2.10039 5.17969 2.10039H11.9641C12.2322 2.10039 12.35 2.18977 12.35 2.45789V3.40039H0.65V1.13758C0.65 0.771953 1.06844 0.800391 1.14562 0.800391ZM11.9641 11.2004H1.14562C0.881562 11.2004 0.65 10.9485 0.65 10.6682V4.05039H12.35V10.6682C12.35 10.912 12.2444 11.2004 11.9641 11.2004Z" fill="black"/>
</svg>
