<svg width="5" height="6" viewBox="0 0 5 6" fill="none" xmlns="http://www.w3.org/2000/svg">
<path d="M4.24067 1.59149C4.19863 1.55219 4.12244 1.50061 4.01208 1.4343C3.90173 1.36799 3.76773 1.30413 3.61009 1.24273C3.45244 1.18133 3.28166 1.1273 3.09773 1.08064C2.91381 1.03397 2.72727 1.00942 2.53547 1.00942C2.20179 1.00942 1.95218 1.06836 1.7814 1.18379C1.61324 1.29922 1.52654 1.46377 1.52654 1.67253C1.52654 1.83217 1.57908 1.95989 1.68681 2.05321C1.79453 2.14654 1.95481 2.22759 2.16763 2.2939C2.38045 2.36021 2.64845 2.43144 2.96899 2.51003C3.38413 2.60336 3.74671 2.71879 4.05149 2.85387C4.35628 2.98895 4.59275 3.16578 4.75565 3.38436C4.91855 3.60295 5 3.8903 5 4.25133C5 4.5657 4.93694 4.83586 4.81345 5.05936C4.68997 5.28285 4.51655 5.46459 4.29585 5.60213C4.07515 5.73967 3.82554 5.84036 3.54703 5.90422C3.26852 5.96807 2.97162 6 2.65633 6C2.34104 6 2.02574 5.97053 1.71045 5.90913C1.39516 5.84773 1.09301 5.75932 0.801363 5.64634C0.509718 5.53336 0.241724 5.39583 0 5.23373L0.54388 4.24151C0.596429 4.29063 0.693643 4.35694 0.830269 4.43799C0.966895 4.51904 1.13242 4.60008 1.32948 4.67868C1.52654 4.75972 1.73936 4.82849 1.97057 4.88252C2.20179 4.93901 2.43825 4.96603 2.67472 4.96603C3.00841 4.96603 3.26064 4.91445 3.43142 4.80884C3.60483 4.70324 3.68891 4.55588 3.68891 4.36431C3.68891 4.18748 3.62059 4.04994 3.48397 3.94924C3.34734 3.851 3.15817 3.76259 2.91382 3.68891C2.66947 3.61523 2.38308 3.53173 2.04939 3.44331C1.65002 3.3377 1.31897 3.21981 1.05097 3.08965C0.782974 2.95948 0.583284 2.79493 0.45454 2.59599C0.325796 2.39706 0.257483 2.149 0.257483 1.84937C0.257483 1.44658 0.359956 1.10765 0.564896 0.832583C0.769836 0.557511 1.04835 0.351208 1.39779 0.211216C1.74724 0.0687681 2.13872 0 2.56437 0C2.86127 0 3.14241 0.0294708 3.40778 0.0908707C3.67315 0.152271 3.92012 0.233321 4.15134 0.331561C4.38255 0.432257 4.59012 0.540319 4.77667 0.655751L4.23279 1.58903L4.24067 1.59149Z" fill="black"/>
</svg>
