<svg width="14" height="12" viewBox="0 0 14 12" fill="none" xmlns="http://www.w3.org/2000/svg">
<path d="M4.12463 6.508L9.57813 11.3063C9.64115 11.3621 9.7176 11.4006 9.79998 11.4179C9.88235 11.4352 9.96781 11.4308 10.048 11.4051C10.1281 11.3794 10.2002 11.3333 10.2572 11.2713C10.3141 11.2093 10.354 11.1336 10.3728 11.0516L12.6537 1.0909C12.6728 1.00512 12.6683 0.915755 12.6406 0.832346C12.6129 0.748937 12.563 0.674616 12.4964 0.617317C12.4298 0.560018 12.3488 0.521892 12.2622 0.507009C12.1756 0.492126 12.0865 0.501045 12.0046 0.532813L0.806435 4.93079C0.357537 5.10671 0.418199 5.76186 0.891361 5.85892L4.12463 6.508Z" stroke="black" stroke-linecap="round" stroke-linejoin="round"/>
<path d="M4.125 6.50797L12.3811 0.544922" stroke="black" stroke-linecap="round" stroke-linejoin="round"/>
<path d="M6.84871 8.90395L4.95607 10.7966C4.88854 10.8652 4.80216 10.9121 4.7079 10.9315C4.61364 10.9508 4.51575 10.9417 4.42667 10.9053C4.3376 10.8689 4.26136 10.8068 4.20764 10.727C4.15393 10.6471 4.12516 10.5531 4.125 10.4569V6.50781" stroke="black" stroke-linecap="round" stroke-linejoin="round"/>
</svg>
