<svg width="36" height="36" viewBox="0 0 36 36" fill="none" xmlns="http://www.w3.org/2000/svg">
<g clip-path="url(#clip0_4142_14140)">
<path d="M18 0C8.0595 0 0 8.05838 0 18C0 27.9417 8.0595 36 18 36C27.9405 36 36 27.9417 36 18C36 8.05838 27.9405 0 18 0ZM26.2035 10.9642C25.9132 14.0118 24.6577 21.4042 24.02 24.8165C23.751 26.2598 23.2178 26.7435 22.7037 26.792C21.5843 26.8954 20.7348 26.0516 19.6503 25.3428C17.9538 24.2313 16.9965 23.5383 15.3517 22.4538C13.4494 21.2006 14.6813 20.511 15.7635 19.3849C16.0492 19.089 20.98 14.6059 21.0746 14.1998C21.088 14.1491 21.0982 13.9579 20.9869 13.8577C20.871 13.7576 20.7056 13.7937 20.5875 13.8184C20.4176 13.8578 17.7087 15.6498 12.4594 19.1925C11.6888 19.7201 10.9935 19.9765 10.3703 19.9642C9.68176 19.9485 8.35986 19.575 7.37436 19.2543C6.16836 18.8628 5.20985 18.6548 5.29197 17.99C5.33584 17.6423 5.81403 17.2878 6.72528 16.9256C12.3435 14.4787 16.0875 12.8655 17.9628 12.0848C23.3133 9.8595 24.426 9.47137 25.1493 9.46012C25.3102 9.45787 25.6658 9.49722 25.8963 9.68397C26.0921 9.84147 26.145 10.0542 26.172 10.206C26.1968 10.3557 26.227 10.6976 26.2035 10.9642Z" fill="#06B1DF"/>
</g>
<defs>
<clipPath id="clip0_4142_14140">
<rect width="36" height="36" fill="white"/>
</clipPath>
</defs>
</svg>
