<svg width="15" height="15" viewBox="0 0 15 15" fill="none" xmlns="http://www.w3.org/2000/svg">
<path d="M0.600255 13.8109C0.560504 13.811 0.521301 13.8017 0.485899 13.7836C0.450497 13.7655 0.419917 13.7392 0.396697 13.707C0.373476 13.6747 0.358284 13.6374 0.352381 13.5981C0.346478 13.5588 0.350035 13.5186 0.362755 13.4809L1.35026 10.5759C0.573354 9.28349 0.249851 7.76878 0.430984 6.27172C0.612117 4.77466 1.28753 3.38081 2.35026 2.31094C3.61197 1.05482 5.31987 0.349609 7.10026 0.349609C8.88064 0.349609 10.5885 1.05482 11.8503 2.31094C12.9625 3.43915 13.6414 4.92334 13.7676 6.50256C13.8938 8.08179 13.4593 9.65497 12.5404 10.9455C11.6215 12.2361 10.2771 13.1614 8.74349 13.5588C7.20989 13.9562 5.58527 13.8003 4.15526 13.1184L0.650255 13.8109H0.600255ZM4.18776 12.5984C4.22689 12.5987 4.26542 12.6081 4.30026 12.6259C5.62292 13.2857 7.13695 13.4541 8.57226 13.1011C10.0076 12.7481 11.2708 11.8967 12.1366 10.6987C13.0024 9.50079 13.4145 8.03422 13.2993 6.56064C13.1841 5.08706 12.5492 3.70232 11.5078 2.65344C10.929 2.07456 10.2419 1.61536 9.48563 1.30207C8.72938 0.988777 7.91883 0.827526 7.10026 0.827526C6.28168 0.827526 5.47113 0.988777 4.71488 1.30207C3.95864 1.61536 3.27151 2.07456 2.69276 2.65344C1.69702 3.65961 1.07106 4.97312 0.916727 6.38026C0.762396 7.78741 1.08877 9.20537 1.84276 10.4034C1.86277 10.4351 1.8754 10.4709 1.87973 10.5081C1.88406 10.5453 1.87996 10.583 1.86776 10.6184L0.977755 13.2409L4.14276 12.6109L4.18776 12.5984Z" fill="black" stroke="black" stroke-width="0.7"/>
<path d="M8.89282 10.5614C8.81622 10.5655 8.73944 10.5655 8.66283 10.5614C7.33533 10.4164 5.66283 9.10386 5.19033 8.64136C4.72783 8.17886 3.41282 6.49636 3.27032 5.16886C3.15532 4.10886 3.86283 3.38886 4.17283 3.12636C4.31144 3.00729 4.49027 2.94559 4.67283 2.95386L5.34783 2.97636C5.39719 2.97819 5.4449 2.9946 5.48495 3.02352C5.52499 3.05244 5.55557 3.09258 5.57282 3.13886C5.72283 3.53636 6.20783 4.85886 6.20783 5.20136C6.20783 5.50136 5.94283 5.73386 5.70783 5.93886C5.65783 5.98136 5.59032 6.04136 5.55032 6.08386C5.803 6.54562 6.10565 6.97822 6.45283 7.37386C6.84851 7.72099 7.2811 8.02364 7.74283 8.27636C7.78533 8.23386 7.84533 8.16636 7.88783 8.11886C8.09283 7.88386 8.32533 7.61886 8.63783 7.61886C8.98033 7.61886 10.3028 8.10386 10.7003 8.25386C10.7466 8.27112 10.7867 8.30169 10.8157 8.34174C10.8446 8.38178 10.861 8.4295 10.8628 8.47886L10.8853 9.15386C10.8905 9.33595 10.8291 9.51367 10.7128 9.65386C10.4919 9.92638 10.2152 10.1484 9.90121 10.3049C9.58727 10.4615 9.24342 10.5489 8.89282 10.5614ZM5.54533 8.28136C5.95783 8.69386 7.54533 9.93136 8.71783 10.0589C9.54033 10.1464 10.1153 9.57886 10.3253 9.33136C10.3628 9.28472 10.3823 9.22617 10.3803 9.16636L10.3628 8.66636C9.80085 8.44099 9.2225 8.2588 8.63283 8.12136C8.55283 8.12136 8.35533 8.35386 8.27033 8.45136C8.10033 8.64636 7.96533 8.79886 7.77033 8.79886C7.45283 8.79886 6.34533 7.97886 6.09783 7.73136C5.85033 7.48386 5.03782 6.36886 5.03782 6.06136C5.03782 5.87386 5.19032 5.73886 5.38532 5.56136C5.48032 5.47636 5.70782 5.28136 5.71532 5.19886C5.57784 4.60919 5.39565 4.03086 5.17033 3.46886L4.67033 3.45136C4.61051 3.44935 4.55197 3.46887 4.50533 3.50636C4.25533 3.71636 3.68782 4.29136 3.77782 5.11136C3.90532 6.29136 5.14283 7.86136 5.55533 8.28386L5.54533 8.28136Z" fill="black" stroke="black" stroke-width="0.7"/>
</svg>
